HIERARCHY
ROOT SpineBase
{
  OFFSET 0.000000 0.000000 0.000000
  CHANNELS 6 Xposition Yposition Zposition Zrotation Xrotation Yrotation
  JOINT SpineMid
  {
    OFFSET -0.000000 36.904524 0.000000
    CHANNELS 3 Zrotation Xrotation Yrotation
    JOINT SpineShoulder
    {
      OFFSET -0.815087 27.092680 -0.842720
      CHANNELS 3 Zrotation Xrotation Yrotation
      JOINT Neck
      {
        OFFSET -0.305017 8.854286 -0.788092
        CHANNELS 3 Zrotation Xrotation Yrotation
        JOINT Head
        {
          OFFSET -5.631652 10.943069 4.996266
          CHANNELS 3 Zrotation Xrotation Yrotation
          End Site
          {
            OFFSET 0 0 0
          }
        }
      }
      JOINT ShoulderLeft
      {
        OFFSET -14.330498 -9.560197 -16.726517
        CHANNELS 3 Zrotation Xrotation Yrotation
        JOINT ElbowLeft
        {
          OFFSET 4.987175 -26.273521 -6.241779
          CHANNELS 3 Zrotation Xrotation Yrotation
          JOINT WristLeft
          {
            OFFSET -0.034196 -21.530957 11.682309
            CHANNELS 3 Zrotation Xrotation Yrotation
            JOINT HandLeft
            {
              OFFSET 3.440948 -5.840332 -0.147013
              CHANNELS 3 Zrotation Xrotation Yrotation
              JOINT HandTipLeft
              {
                OFFSET -0.436053 -8.386321 0.746781
                CHANNELS 3 Zrotation Xrotation Yrotation
                End Site
                {
                  OFFSET 0 0 0
                }
              }
              JOINT ThumbLeft
              {
                OFFSET 3.684734 -0.532976 -3.965784
                CHANNELS 3 Zrotation Xrotation Yrotation
                End Site
                {
                  OFFSET 0 0 0
                }
              }
            }
          }
        }
      }
      JOINT ShoulderRight
      {
        OFFSET 3.662205 -5.341153 -14.054779
        CHANNELS 3 Zrotation Xrotation Yrotation
        JOINT ElbowRight
        {
          OFFSET 2.224484 -27.757872 -5.678825
          CHANNELS 3 Zrotation Xrotation Yrotation
          JOINT WristRight
          {
            OFFSET -9.224091 -18.650184 4.065302
            CHANNELS 3 Zrotation Xrotation Yrotation
            JOINT HandRight
            {
              OFFSET -2.081348 -5.003216 2.467917
              CHANNELS 3 Zrotation Xrotation Yrotation
              JOINT HandTipRight
              {
                OFFSET -4.645944 -5.474070 1.131574
                CHANNELS 3 Zrotation Xrotation Yrotation
                End Site
                {
                  OFFSET 0 0 0
                }
              }
              JOINT ThumbRight
              {
                OFFSET -2.650631 3.685597 -1.192089
                CHANNELS 3 Zrotation Xrotation Yrotation
                End Site
                {
                  OFFSET 0 0 0
                }
              }
            }
          }
        }
      }
    }
  }
  JOINT HipLeft
  {
    OFFSET -7.671141 0.410981 -1.953952
    CHANNELS 3 Zrotation Xrotation Yrotation
    JOINT KneeLeft
    {
      OFFSET 20.301856 -30.455325 7.864069
      CHANNELS 3 Zrotation Xrotation Yrotation
      JOINT AnkleLeft
      {
        OFFSET 6.241957 -33.362667 6.095691
        CHANNELS 3 Zrotation Xrotation Yrotation
        JOINT FootLeft
        {
          OFFSET -8.692482 -3.827725 0.453796
          CHANNELS 3 Zrotation Xrotation Yrotation
          End Site
          {
            OFFSET 0 0 0
          }
        }
      }
    }
  }
  JOINT HipRight
  {
    OFFSET 7.580499 0.798092 -5.523506
    CHANNELS 3 Zrotation Xrotation Yrotation
    JOINT KneeRight
    {
      OFFSET -3.287378 -30.780951 2.100238
      CHANNELS 3 Zrotation Xrotation Yrotation
      JOINT AnkleRight
      {
        OFFSET 6.157786 -34.415727 4.808762
        CHANNELS 3 Zrotation Xrotation Yrotation
        JOINT FootRight
        {
          OFFSET -4.025570 -7.066090 -2.387562
          CHANNELS 3 Zrotation Xrotation Yrotation
          End Site
          {
            OFFSET 0 0 0
          }
        }
      }
    }
  }
}
MOTION
Frames: 12
Frame Time: 0.033333
-2.032082 74.401239 347.428504 0.000000 0.000000 13.172629 -0.000000 -0.000000 -13.172629 -0.000000 0.000000 0.000000 -0.000000 0.000000 0.000000 0.000000 0.000000 0.000000 -0.000000 0.000000 0.000000 -0.000000 0.000000 0.000000 -0.000000 0.000000 0.000000 -0.000000 0.000000 0.000000 0.000000 0.000000 0.000000 0.000000 0.000000 0.000000 -0.000000 0.000000 0.000000 -0.000000 0.000000 0.000000 -0.000000 0.000000 0.000000 -0.000000 0.000000 0.000000 0.000000 0.000000 0.000000 0.000000 0.000000 0.000000 -0.000000 -0.000000 -13.172629 -0.000000 0.000000 0.000000 -0.000000 0.000000 0.000000 0.000000 0.000000 0.000000 -0.000000 -0.000000 -13.172629 -0.000000 0.000000 0.000000 -0.000000 0.000000 0.000000 0.000000 0.000000 0.000000
-1.132466 74.217959 346.585530 1.075888 0.550281 20.281498 -1.199925 -0.143149 -20.288164 -0.000000 0.000000 0.000000 -0.783106 -0.441727 0.127876 0.000000 0.000000 0.000000 -0.000000 0.000000 0.000000 -0.000000 0.000000 0.000000 -0.674971 4.744574 2.848241 0.057547 -6.328466 -2.784267 0.000000 0.000000 0.000000 0.000000 0.000000 0.000000 -0.000000 0.000000 0.000000 -0.000000 0.000000 0.000000 -0.051419 -1.185438 0.464806 -0.003723 0.223592 0.337697 0.000000 0.000000 0.000000 0.000000 0.000000 0.000000 3.163816 -0.833705 -18.593944 -7.847977 -1.780294 -2.611738 4.961783 2.310061 -1.604853 0.000000 0.000000 0.000000 -4.956355 -2.775796 -20.159766 2.625389 3.761275 -0.310353 1.384902 -2.217273 0.833351 0.000000 0.000000 0.000000
-0.494528 74.046468 345.900674 1.886694 0.937916 25.079513 -1.275114 0.365443 -25.058306 -0.030904 0.329925 0.043452 -1.914460 -1.845745 0.093588 0.000000 0.000000 0.000000 -0.547248 -1.057319 -0.090124 -0.000000 0.000000 0.000000 -1.632570 9.049833 5.544503 -0.014597 -12.230712 -5.378401 0.000000 0.000000 0.000000 0.000000 0.000000 0.000000 -0.547248 -1.057319 -0.090124 -0.383512 0.757777 -0.455751 0.318878 -2.756033 1.241299 0.472126 0.011779 0.970073 0.000000 0.000000 0.000000 0.000000 0.000000 0.000000 5.505430 -1.795523 -22.024216 -13.830674 -2.843718 -4.724089 7.781504 4.124794 -3.227608 0.000000 0.000000 0.000000 -9.089248 -4.228373 -24.948166 4.604260 6.710686 -0.678900 2.541018 -4.011762 1.554679 0.000000 0.000000 0.000000
-0.118266 73.886764 345.373936 2.433646 1.163756 28.240551 -1.640343 0.588249 -28.219536 -0.011530 0.474586 0.057451 -2.448740 -2.419243 0.085683 0.000000 0.000000 0.000000 -0.700761 -1.378665 -0.118198 -0.000000 0.000000 0.000000 -2.805534 12.799507 8.038198 -0.088216 -17.567293 -7.703093 0.000000 0.000000 0.000000 0.000000 0.000000 0.000000 -0.700761 -1.378665 -0.118198 -0.546484 0.909729 -0.564371 0.467252 -3.394612 1.538958 1.460027 -0.573407 1.877525 0.000000 0.000000 0.000000 0.000000 0.000000 0.000000 7.092905 -2.557083 -24.189352 -17.966814 -3.429786 -6.245275 8.657328 5.522592 -4.787658 0.000000 0.000000 0.000000 -12.038003 -4.969115 -28.104733 5.919691 8.848421 -1.011939 3.424938 -5.348671 2.121168 0.000000 0.000000 0.000000
-0.003682 73.738849 345.005317 2.718175 1.228804 30.174932 -1.843621 0.761434 -30.154705 0.030647 0.605597 0.066948 -2.698589 -2.760380 0.055057 0.000000 0.000000 0.000000 -0.774928 -1.563833 -0.133295 -0.000000 0.000000 0.000000 -4.119794 15.929598 10.281049 0.000166 -22.242504 -9.658751 0.000000 0.000000 0.000000 0.000000 0.000000 0.000000 -1.306992 -2.276497 -0.099826 -0.158051 1.620515 -0.638410 0.592673 -3.583583 1.636822 2.981821 -1.467329 3.056099 0.000000 0.000000 0.000000 0.000000 0.000000 0.000000 7.999608 -2.970028 -25.534843 -20.325572 -3.713732 -7.153750 7.706361 6.586038 -6.251781 0.000000 0.000000 0.000000 -13.681090 -5.356000 -30.011641 6.560822 10.194330 -1.244475 4.002318 -6.205977 2.498296 0.000000 0.000000 0.000000
-0.150775 73.602722 344.794816 2.741571 1.133882 31.107814 -1.896606 0.862959 -31.087621 0.095603 0.723222 0.072178 -2.663071 -2.869972 0.006628 0.000000 0.000000 0.000000 -0.770245 -1.614012 -0.134874 -0.000000 0.000000 0.000000 -5.503558 18.419581 12.229269 0.443037 -26.191639 -11.126815 0.000000 0.000000 0.000000 0.000000 0.000000 0.000000 -1.330946 -2.532284 -0.114616 -0.252175 1.668103 -0.572512 0.691179 -3.346247 1.543425 5.043408 -2.600056 4.512335 0.000000 0.000000 0.000000 0.000000 0.000000 0.000000 8.275643 -2.971527 -26.300413 -20.985350 -3.800345 -7.457444 4.980054 7.391065 -7.614693 0.000000 0.000000 0.000000 -13.978691 -5.570232 -30.894931 6.517415 10.764515 -1.339256 4.249653 -6.570672 2.662372 0.000000 0.000000 0.000000
-0.806032 73.475730 344.812525 2.112109 0.787230 31.416363 -1.408312 0.730087 -31.393908 0.225070 0.881759 0.079614 -2.277451 -2.918113 -0.201961 0.000000 0.000000 0.000000 -0.757503 -1.556308 -0.131200 0.070252 -0.843551 0.039815 -7.724233 22.141841 14.833988 -1.506908 -32.480762 -14.150876 0.000000 0.000000 0.000000 0.000000 0.000000 0.000000 -1.314480 -2.683361 -0.128874 -0.338008 1.614487 -0.440640 0.444129 -2.424410 0.997949 9.767106 -4.750821 7.650600 0.000000 0.000000 0.000000 0.000000 0.000000 0.000000 7.414102 -2.043825 -27.093686 -18.955066 -4.031940 -7.049183 -2.147289 7.454317 -7.501193 0.000000 0.000000 0.000000 -11.972035 -5.875484 -31.116647 5.369797 9.531221 -1.400601 3.853541 -5.431917 2.612768 0.000000 0.000000 0.000000
-1.913719 73.418704 345.238630 1.093929 -0.012864 29.587570 -0.944961 0.551291 -29.582901 0.576595 1.219829 0.087274 -1.999346 -2.345199 -0.076898 0.000000 0.000000 0.000000 -0.578583 -1.218888 -0.099566 0.076707 -0.856624 0.043378 -9.125287 23.839039 16.459405 2.649290 -36.013504 -13.111302 0.000000 0.000000 0.000000 0.000000 0.000000 0.000000 -1.076574 -2.597715 -0.125453 -0.559707 1.135703 -0.082229 0.453522 -0.367119 0.063759 12.662858 -7.198432 10.659677 0.000000 0.000000 0.000000 0.000000 0.000000 0.000000 5.892869 -0.765469 -26.479489 -15.250403 -3.635679 -5.595962 -7.871615 9.357843 -10.999039 0.000000 0.000000 0.000000 -7.341734 -5.377836 -29.147414 2.965379 7.292603 -1.076122 2.952481 -4.332220 2.261061 0.000000 0.000000 0.000000
-2.684753 73.416269 345.468538 0.609634 -0.540235 27.464300 -0.291807 0.760493 -27.459490 0.324981 0.812974 0.054655 -0.325789 -0.812651 -0.059271 0.000000 0.000000 0.000000 -0.325789 -0.812651 -0.059271 0.090223 -0.842739 0.050753 -9.796612 23.708499 16.588734 4.190242 -36.246324 -12.463911 0.000000 0.000000 0.000000 0.000000 0.000000 0.000000 -0.734038 -2.454956 -0.119613 -0.672903 0.786826 0.252491 1.081288 0.851648 -0.194778 13.635320 -7.842282 11.397955 0.000000 0.000000 0.000000 0.000000 0.000000 0.000000 4.700027 0.160232 -25.157570 -11.979870 -3.026613 -4.347257 -13.289918 10.070486 -12.688458 0.000000 0.000000 0.000000 -4.107133 -4.746762 -26.942275 1.194594 5.611478 -0.874811 1.685330 -2.892314 1.778960 0.000000 0.000000 0.000000
-3.302367 73.431570 345.693136 0.319327 -1.034594 25.002078 -0.675853 0.755490 -25.025606 0.612101 0.635806 0.034772 1.511727 -0.287141 -0.829534 0.000000 0.000000 0.000000 -0.000000 0.000000 0.000000 0.099279 -0.831662 0.055689 -9.343490 22.964532 15.906317 7.931839 -31.846071 -10.276503 0.000000 0.000000 0.000000 0.000000 0.000000 0.000000 -0.262517 -1.848395 -0.099014 -0.593462 0.434015 0.616950 0.867923 1.405597 -0.520013 15.434269 -7.368604 11.617960 0.000000 0.000000 0.000000 0.000000 0.000000 0.000000 3.530052 0.956386 -23.397777 -8.295678 -2.177453 -2.998124 -18.425389 10.702463 -14.565409 0.000000 0.000000 0.000000 -1.304458 -3.760033 -24.452725 -0.363142 3.963491 -0.716296 1.383763 -2.039076 1.355688 0.000000 0.000000 0.000000
-4.327191 73.585763 346.019927 -0.492307 -1.628320 22.370748 -0.312291 0.659643 -22.432482 1.030926 1.138300 0.056076 3.141589 0.307071 -1.265641 0.000000 0.000000 0.000000 -0.000000 0.000000 0.000000 0.105987 -0.832339 0.059365 -8.503678 21.461862 14.578427 7.357869 -29.976416 -9.735952 0.000000 0.000000 0.000000 0.000000 0.000000 0.000000 -0.159467 -1.984287 -0.129645 -0.223246 0.567112 0.747504 0.396669 1.412481 -0.619771 13.881470 -6.545380 10.146775 0.000000 0.000000 0.000000 0.000000 0.000000 0.000000 2.278410 1.241641 -21.867056 -3.099744 0.413603 -0.768289 -27.729597 5.313908 -10.074776 0.000000 0.000000 0.000000 2.718248 -2.835080 -21.812646 -2.735865 2.236955 -0.615900 1.159122 -1.696534 1.192485 0.000000 0.000000 0.000000
-4.504339 73.588674 346.223826 -0.276053 -2.055062 21.128175 -0.609962 0.716687 -21.196034 0.433096 0.907210 -0.001768 4.979834 1.566140 -1.497214 0.000000 0.000000 0.000000 0.667988 0.700657 0.079536 0.111711 -0.833631 0.062503 -6.758685 19.682657 12.845202 4.495850 -27.780614 -9.788259 0.000000 0.000000 0.000000 0.000000 0.000000 0.000000 0.587152 -1.370289 -0.070343 -0.120248 -0.050411 1.151154 0.465581 1.432557 -0.612280 14.875896 -4.145546 8.093469 0.000000 0.000000 0.000000 0.000000 0.000000 0.000000 2.316211 1.398562 -20.776199 -3.097239 1.047862 -0.503923 -28.625701 1.470789 -5.818379 0.000000 0.000000 0.000000 3.278749 -1.711171 -20.654512 -2.947418 1.635858 -0.530218 0.927076 -1.578194 1.044005 0.000000 0.000000 0.000000
